<svg width="13px" height="21px" viewBox="0 0 13 21" xmlns="http://www.w3.org/2000/svg">
  <g id="Page-1" fill="none" fill-rule="evenodd">
    <g id="artAudioPlayer" transform="translate(-101.000000, -97.000000) translate(80.000000, 80.000000)">
      <rect id="Mask" width="54" height="54"/>
      <path d="M27,21.007484 C27,20.4510659 27.4438648,20 28,20 L28,20 C28.5522847,20 29,20.4489202 29,21.007484 L29,33.992516 C29,34.5489341 28.5561352,35 28,35 L28,35 C27.4477153,35 27,34.5510798 27,33.992516 L27,21.007484 Z" id="Rectangle" fill="#AFBAC6"/>
      <path d="M27,18.7122688 C27,18.4325926 27.217172,18.1658118 27.4922264,18.1150768 L33.5077736,17.0054814 C33.7796227,16.9553376 34,17.1453957 34,17.4210866 L34,20.2818361 C34,20.5615123 33.782828,20.8282931 33.5077736,20.8790281 L27.4922264,21.9886235 C27.2203773,22.0387673 27,21.8487092 27,21.5730183 L27,18.7122688 Z" id="Rectangle-2" fill="#AFBAC6"/>
      <circle id="Oval-8" fill="#AFBAC6" cx="25" cy="34" r="4"/>
    </g>
  </g>
</svg>