<svg xmlns="http://www.w3.org/2000/svg" width="20" height="12" viewBox="0 0 20 12">
  <path fill="#BFC5CB" fill-rule="evenodd" d="M18.750448,4 C18.371881,3.58632298 17.9188429,3.14829358 17.3901844,2.7110825 C15.3464191,1.0208479 12.8776808,-2.20362374e-16 10,0 C7.12231925,1.10181187e-16 4.65358088,1.0208479 2.6098156,2.7110825 C2.09735933,3.13489405 1.65595922,3.55947451 1.28456856,4 L18.750448,4 Z M18.750448,4 C18.371881,4.41367702 17.9188429,4.85170642 17.3901844,5.2889175 C15.3464191,6.9791521 12.8776808,8 10,8 C7.12231925,8 4.65358088,6.9791521 2.6098156,5.2889175 C2.09735933,4.86510595 1.65595922,4.44052549 1.28456856,4 L18.750448,4 Z M14.2636753,8.17781234 L15.2715807,10.9470097 C14.8409272,11.1241576 14.4008682,11.2799721 13.9514507,11.4133084 L12.9357842,8.62278762 C13.3913484,8.50166707 13.8340081,8.35269886 14.2636753,8.17781234 L14.2636753,8.17781234 Z M10.6999878,8.97958148 L10.6999878,11.962792 C10.4692594,11.9739447 10.2364987,11.97958 10.0017105,11.97958 C9.76575353,11.97958 9.53184432,11.9738885 9.29998779,11.9626251 L9.29998779,8.97958005 C9.53056669,8.99312865 9.76390705,9 10,9 C10.2360846,9 10.4694168,8.99312914 10.6999878,8.97958148 L10.6999878,8.97958148 Z M7.06419356,8.6227817 L6.04886084,11.4123854 C5.59948051,11.2789437 5.15945916,11.1230258 4.72884369,10.9457767 L5.73630346,8.17780368 C6.16597024,8.35269109 6.60862961,8.50166021 7.06419356,8.6227817 L7.06419356,8.6227817 Z M17.2889259,6.37182918 L19.1551899,8.59595605 C18.7913059,8.89474062 18.4181425,9.17640911 18.0357444,9.43986618 L16.1520685,7.19498857 C16.544366,6.94322617 16.9233484,6.66818278 17.2889259,6.37182918 L17.2889259,6.37182918 Z M3.84791566,7.19497838 L1.96549344,9.43836182 C1.58314374,9.17484452 1.21002806,8.89311914 0.846191264,8.59428089 L2.71105957,6.37181739 C3.07663661,6.66817148 3.4556186,6.94321541 3.84791566,7.19497838 L3.84791566,7.19497838 Z"/>
</svg>