<svg xmlns="http://www.w3.org/2000/svg" width="20" height="11" viewBox="0 0 20 11">
  <path fill="#B3BECB" fill-rule="evenodd" d="M1.85749293,6.51449576 C1.92919694,6.39498907 2.09157701,6.1581848 2.34336881,5.84344505 C2.77209065,5.30754275 3.2884587,4.76965936 3.8901844,4.26822128 C5.59641912,2.84635902 7.62768075,2 10,2 C12.3723192,2 14.4035809,2.84635902 16.1098156,4.26822128 C16.7115413,4.76965936 17.2279094,5.30754275 17.6566312,5.84344505 C17.908423,6.1581848 18.0708031,6.39498907 18.1425071,6.51449576 L19.8574929,5.48550424 C19.4291876,4.77166204 18.611474,3.74952009 17.3901844,2.73177872 C15.3464191,1.02864098 12.8776808,-2.22044605e-16 10,0 C7.12231925,1.11022302e-16 4.65358088,1.02864098 2.6098156,2.73177872 C1.38852596,3.74952009 0.570812397,4.77166204 0.142507074,5.48550424 L1.85749293,6.51449576 Z M10,11 C7.790861,11 6,9.209139 6,7 C6,4.790861 7.790861,3 10,3 C12.209139,3 14,4.790861 14,7 C14,9.209139 12.209139,11 10,11 Z M10,9 C11.1045695,9 12,8.1045695 12,7 C12,5.8954305 11.1045695,5 10,5 C8.8954305,5 8,5.8954305 8,7 C8,8.1045695 8.8954305,9 10,9 Z"/>
</svg>
